<svg xmlns="http://www.w3.org/2000/svg" viewBox="0 0 209 28"><title>Logos</title><path d="M44.67,21.27H38V7.16h6.53c2.87,0,4.64,1.43,4.64,3.65v0a3.28,3.28,0,0,1-1.85,3c1.63,0.62,2.63,1.57,2.63,3.47v0c0,2.58-2.09,3.87-5.26,3.87m1.41-9.94c0-.93-0.72-1.45-2-1.45H41v3h2.85c1.37,0,2.23-.44,2.23-1.49v0ZM46.86,17c0-.95-0.7-1.53-2.29-1.53H41v3.1h3.68c1.37,0,2.19-.48,2.19-1.53v0Z" fill="#fff"/><path d="M58.92,21.51a7.22,7.22,0,0,1-7.46-7.26v0a7.48,7.48,0,0,1,15,0v0a7.28,7.28,0,0,1-7.5,7.3m4.26-7.3a4.28,4.28,0,0,0-4.26-4.43,4.21,4.21,0,0,0-4.22,4.39v0A4.28,4.28,0,0,0,59,18.65a4.21,4.21,0,0,0,4.22-4.39v0Z" fill="#fff"/><path d="M81.33,21.69L79.78,20.3a7.64,7.64,0,0,1-4.18,1.21,7.22,7.22,0,0,1-7.46-7.26v0a7.48,7.48,0,0,1,15,0v0a7.15,7.15,0,0,1-1.25,4.05l1.45,1.23Zm-1.47-7.48A4.28,4.28,0,0,0,75.6,9.78a4.21,4.21,0,0,0-4.22,4.39v0a4.28,4.28,0,0,0,4.26,4.43,4.51,4.51,0,0,0,1.85-.38l-2.29-2,2-2.22,2.31,2.1a4.68,4.68,0,0,0,.38-1.94v0Z" fill="#fff"/><path d="M93.84,13.54c3.14,0.69,4.58,1.83,4.58,4,0,2.44-2,4-4.8,4a8.21,8.21,0,0,1-5.75-2.26l1-1.17a6.69,6.69,0,0,0,4.82,2c1.89,0,3.14-1,3.14-2.42s-0.7-2.08-3.66-2.7c-3.23-.71-4.72-1.75-4.72-4.09S90.38,7,93.05,7A7.33,7.33,0,0,1,98,8.78L97.07,10A6.16,6.16,0,0,0,93,8.48c-1.83,0-3,1-3,2.3s0.72,2.1,3.82,2.76" fill="#fff"/><path d="M107.06,16.38h-3.42v5h-1.59V7.25h5.27c3.18,0,5.27,1.69,5.27,4.49,0,3.06-2.53,4.63-5.53,4.63m0.14-7.66h-3.56v6.21h3.48c2.33,0,3.86-1.25,3.86-3.12,0-2-1.51-3.08-3.78-3.08" fill="#fff"/><polygon points="126.05 8.7 117.47 8.7 117.47 13.52 125.15 13.52 125.15 14.97 117.47 14.97 117.47 19.91 126.15 19.91 126.15 21.36 115.88 21.36 115.88 7.25 126.05 7.25 126.05 8.7" fill="#fff"/><path d="M136.18,21.6a7,7,0,0,1-7.05-7.28A7.09,7.09,0,0,1,136.24,7a7.31,7.31,0,0,1,5.48,2.24l-1.08,1.17a6.1,6.1,0,0,0-4.42-1.93,5.52,5.52,0,0,0-5.44,5.8,5.56,5.56,0,0,0,5.44,5.84,6.1,6.1,0,0,0,4.54-2l1,1a7.32,7.32,0,0,1-5.63,2.48" fill="#fff"/><polygon points="146.71 7.25 146.71 12.24 146.71 21.36 145.12 21.36 145.12 15.14 145.12 7.25 146.71 7.25" fill="#fff"/><path d="M164.33,21.36h-1.71L161,17.63h-7.66l-1.67,3.73H150l6.41-14.21h1.49ZM157.16,9l-3.21,7.19h6.41Z" fill="#fff"/><polygon points="167.5 7.25 169.09 7.25 169.09 19.89 177.01 19.89 177.01 21.36 167.5 21.36 167.5 7.25" fill="#fff"/><polygon points="182.07 7.25 182.07 11.81 182.07 21.36 180.48 21.36 180.48 13.55 180.48 7.25 182.07 7.25" fill="#fff"/><path d="M191.64,13.54c3.14,0.69,4.58,1.83,4.58,4,0,2.44-2,4-4.8,4a8.21,8.21,0,0,1-5.75-2.26l1-1.17a6.69,6.69,0,0,0,4.82,2c1.89,0,3.14-1,3.14-2.42s-0.7-2.08-3.66-2.7c-3.23-.71-4.72-1.75-4.72-4.09S188.18,7,190.85,7a7.33,7.33,0,0,1,4.94,1.73L194.87,10a6.17,6.17,0,0,0-4.06-1.53c-1.83,0-3,1-3,2.3s0.72,2.1,3.82,2.76" fill="#fff"/><polygon points="204.28 21.36 202.67 21.36 202.67 8.72 197.95 8.72 197.95 7.25 209 7.25 209 8.72 204.28 8.72 204.28 21.36" fill="#fff"/><path d="M10.38,18.78V26a2.41,2.41,0,0,0,.46,1.75,1.71,1.71,0,0,0,.93.26H16.1a1.69,1.69,0,0,0,1-.27A2.42,2.42,0,0,0,17.49,26V18.78H10.38Z" fill="#fff"/><path d="M10.38,9.23h7.12V2A2.41,2.41,0,0,0,17,.27,1.7,1.7,0,0,0,16.1,0H11.78a1.69,1.69,0,0,0-1,.27A2.43,2.43,0,0,0,10.38,2V9.23Z" fill="#fff"/><path d="M0,17.05s0,0.14,0,.3a2.93,2.93,0,0,0,1,1.78c0.07,0.06,5.36,4.73,8.17,7.2,0-.1,0-0.21,0-0.32V2c0-.11,0-0.22,0-0.32C6.38,4.15,1.08,8.82,1,8.88A2.82,2.82,0,0,0,0,10.7v6.35Z" fill="#fff"/><path d="M18.69,1.69c0,0.11,0,.21,0,0.32V26c0,0.11,0,.22,0,0.32,2.83-2.48,8.1-7.13,8.17-7.19a3,3,0,0,0,1-1.77c0-.19,0-0.34,0-0.34V11s0-.14,0-0.3a3,3,0,0,0-1-1.77C26.79,8.82,21.49,4.15,18.69,1.69Z" fill="#fff"/></svg>