<svg xmlns="http://www.w3.org/2000/svg" viewBox="0 0 20 20"><title>New icons</title><path d="M4.51,19.22a0.88,0.88,0,0,0,.88.78h9.22a0.88,0.88,0,0,0,.88-0.78L17.3,4H2.7ZM14.26,5.51a0.37,0.37,0,0,1,.75.07L13.86,18.71a0.37,0.37,0,0,1-.37.34h0a0.38,0.38,0,0,1-.34-0.41ZM9.62,5.42a0.38,0.38,0,0,1,.75,0V18.68a0.38,0.38,0,1,1-.75,0V5.42Zm-4.3-.25a0.38,0.38,0,0,1,.41.34L6.88,18.65a0.38,0.38,0,0,1-.34.41h0a0.37,0.37,0,0,1-.37-0.34L5,5.57A0.38,0.38,0,0,1,5.33,5.17Z" fill="#0b446e"/><path d="M17.23,0.67h-7V0H9.76V0.67h-7a0.91,0.91,0,0,0-.91.91V3H18.15V1.58A0.91,0.91,0,0,0,17.23.67Z" fill="#0b446e"/></svg>