<svg xmlns="http://www.w3.org/2000/svg" viewBox="0 0 20 20"><title>New icons</title><path d="M11.36,10l8.39-8.39A0.82,0.82,0,0,0,20,1.06,0.79,0.79,0,0,0,19.75.44l-0.19-.2a0.84,0.84,0,0,0-1.18,0L10,8.64,1.61,0.25A0.84,0.84,0,0,0,.44.25l-0.19.2A0.79,0.79,0,0,0,0,1.06a0.82,0.82,0,0,0,.25.55L8.64,10,0.25,18.39a0.84,0.84,0,0,0-.25.55,0.79,0.79,0,0,0,.25.61l0.19,0.2a0.84,0.84,0,0,0,1.18,0L10,11.36l8.39,8.39a0.84,0.84,0,0,0,1.18,0l0.19-.2A0.79,0.79,0,0,0,20,18.94a0.84,0.84,0,0,0-.25-0.55Z" fill="#0b446e"/></svg>