<svg xmlns="http://www.w3.org/2000/svg" viewBox="0 0 20 20"><title>New icons</title><path d="M19.49,17.53l0.14-.37c0.47-1-2.74-2.5-4-3.32s-2.15.24-3.21,0.82-4.24-2.8-4.24-2.8S4.76,8.68,5.34,7.62,7,5.7,6.16,4.4,3.83-.1,2.84.36l-0.37.14C-2.15,2.18.11,7.93,6,14,12.07,19.89,17.82,22.15,19.49,17.53Z" fill="#0b446e"/><path d="M19.45,12.4a0.55,0.55,0,0,1-.55-0.55A10.78,10.78,0,0,0,8.14,1.09,0.55,0.55,0,0,1,8.14,0,11.87,11.87,0,0,1,20,11.85,0.55,0.55,0,0,1,19.45,12.4Z" fill="#0b446e"/><path d="M16.17,12.4a0.55,0.55,0,0,1-.55-0.55A7.49,7.49,0,0,0,8.14,4.37a0.55,0.55,0,0,1,0-1.09,8.59,8.59,0,0,1,8.58,8.57A0.55,0.55,0,0,1,16.17,12.4Z" fill="#0b446e"/><path d="M12.89,12.4a0.55,0.55,0,0,1-.55-0.55,4.21,4.21,0,0,0-4.21-4.2,0.55,0.55,0,0,1,0-1.09,5.3,5.3,0,0,1,5.3,5.29A0.55,0.55,0,0,1,12.89,12.4Z" fill="#0b446e"/></svg>