<svg xmlns="http://www.w3.org/2000/svg" viewBox="0 0 20 20"><title>New icons</title><path d="M16.88,4.37A0.69,0.69,0,0,0,16,4.8l-3.15,9.28-0.14.42-0.19.57,0.29,1.28,1-.83L14,15l0.14-.42,3.15-9.28A0.69,0.69,0,0,0,16.88,4.37Z" fill="#0b446e"/><path d="M15.89,4V1.38A1.38,1.38,0,0,0,14.51,0H13l-0.29.8a2.09,2.09,0,0,1-1.93,2.11h-3A2.09,2.09,0,0,1,5.83.8L5.54,0H4A1.37,1.37,0,0,0,2.65,1.38V18.62A1.37,1.37,0,0,0,4,20H14.51a1.38,1.38,0,0,0,1.38-1.38V11.17l-1.6,4.68-1.27,1H14.7v0.56H3.84V16.89h8.52L11.94,15l0.26-.76H3.84V13.73h8.55l0.88-2.6H3.84V10.57h9.62L14.34,8H3.84V7.42H14.53l0.95-2.8A1.13,1.13,0,0,1,15.89,4Zm-1.19.76H3.84V4.26H14.7V4.81Z" fill="#0b446e"/><path d="M6.94,0.59L6.73,0h5.09l-0.21.59a1.08,1.08,0,0,1-.81,1.2h-3A1.08,1.08,0,0,1,6.94.59Z" fill="#0b446e"/></svg>