<svg xmlns="http://www.w3.org/2000/svg" viewBox="0 0 20 20"><title>New icons</title><rect x="9" y="4.4" width="2" height="5.15" rx="0.57" ry="0.57" fill="#0b446e"/><rect x="11.84" y="1.44" width="3.73" height="1.96" rx="0.58" ry="0.58" fill="#0b446e"/><path d="M19.37,9.28H16.8v-4a0.63,0.63,0,0,0-.63-0.63h-3.7a0.63,0.63,0,0,0-.63.63V8.91a0.65,0.65,0,0,0,.65.65h0.43v5.12a0.63,0.63,0,0,0,.63.63h5.81A0.63,0.63,0,0,0,20,14.68V9.91A0.63,0.63,0,0,0,19.37,9.28Z" fill="#0b446e"/><rect x="12.92" y="16.21" width="7.08" height="2.35" rx="0.62" ry="0.62" fill="#0b446e"/><rect x="4.43" y="1.44" width="3.73" height="1.96" rx="0.58" ry="0.58" transform="translate(12.6 4.83) rotate(-180)" fill="#0b446e"/><path d="M8.16,5.23V8.91a0.64,0.64,0,0,1-.42.6,0.55,0.55,0,0,1-.23,0H7.09v5.12a0.63,0.63,0,0,1-.63.63H0.64A0.64,0.64,0,0,1,0,14.68V9.91A0.64,0.64,0,0,1,.64,9.28H3.21v-4A0.63,0.63,0,0,1,3.84,4.6H7.53A0.63,0.63,0,0,1,8.16,5.23Z" fill="#0b446e"/><rect x="0.01" y="16.21" width="7.08" height="2.35" rx="0.62" ry="0.62" transform="translate(7.09 34.77) rotate(-180)" fill="#0b446e"/><path d="M3.21,8.94V9.28H2.89A0.32,0.32,0,0,0,3.21,8.94Z" fill="#0b446e"/><path d="M7.41,9.56a0.32,0.32,0,0,0-.32.33V9.56H7.41Z" fill="#0b446e"/><path d="M16.8,8.94V9.28h0.32A0.32,0.32,0,0,1,16.8,8.94Z" fill="#0b446e"/><path d="M12.6,9.56a0.32,0.32,0,0,1,.32.33V9.56H12.6Z" fill="#0b446e"/></svg>