<svg xmlns="http://www.w3.org/2000/svg" viewBox="0 0 20 20"><title>New icons</title><path d="M15,5.46l0.61-.18C19.85,4,20.09,2.44,20,1.81,19.8,0.8,18.45.09,17,.24a3.74,3.74,0,0,0-3.32,3.65l-1.95-.54a1.88,1.88,0,0,0-1.84.47L0.55,13.13a1.88,1.88,0,0,0,0,2.66L4,19.22a1.87,1.87,0,0,0,2.66,0L16,9.91a1.85,1.85,0,0,0,.47-1.84L15.71,5.51,15,5.72a0.63,0.63,0,0,1-.17.28,0.73,0.73,0,0,1-1,0,0.72,0.72,0,0,1,0-1h0A0.45,0.45,0,0,1,14,4.83L14,4.8l0.13,0h0a0.72,0.72,0,0,1,.67.2,1,1,0,0,1,.13.17h0A0.69,0.69,0,0,1,15,5.46Zm-3.28,5.28L11,11.08a2.82,2.82,0,0,0-.77-1.35,1.09,1.09,0,0,0-1.63-.17c-0.44.44-.36,1,0.08,2,0.52,1.23.52,2.11-.24,2.87a2.1,2.1,0,0,1-2.79.1l-0.88.88L4.22,14.9,5.08,14a3.55,3.55,0,0,1-.93-1.66L4.92,12a3.2,3.2,0,0,0,.86,1.59,1.25,1.25,0,0,0,1.84.17c0.47-.47.42-1.08,0-2C7.16,10.59,7,9.67,7.75,8.93a2,2,0,0,1,2.65-.09L11.25,8l0.53,0.53-0.83.83A3.13,3.13,0,0,1,11.76,10.73Zm2.63-6.64L14.21,4h0L14.07,4,14,4C14.3,1.11,16.33.66,17,.6c1.28-.13,2.48.45,2.62,1.28,0.08,0.42,0,1.82-4.12,3.08h0A2,2,0,0,0,14.39,4.09Z" fill="#0b446e"/></svg>