<svg xmlns="http://www.w3.org/2000/svg" viewBox="0 0 20 20"><title>New icons</title><path d="M13.27,12.49V18.4a1.6,1.6,0,0,1-1.6,1.6H4.11a1.6,1.6,0,0,1-1.6-1.6V12.49a5.35,5.35,0,0,1,3-4.83,4.75,4.75,0,0,0,4.72,0A5.34,5.34,0,0,1,13.27,12.49Z" fill="#0b446e"/><path d="M11.43,3.54A3.54,3.54,0,1,1,7.89,0,3.54,3.54,0,0,1,11.43,3.54Z" fill="#0b446e"/><polygon points="17.49 1.7 15.79 1.7 15.79 0 14.53 0 14.53 1.7 12.83 1.7 12.83 2.96 14.53 2.96 14.53 4.66 15.79 4.66 15.79 2.96 17.49 2.96 17.49 1.7" fill="#0b446e"/></svg>