<svg xmlns="http://www.w3.org/2000/svg" viewBox="0 0 20 20"><title>New icons</title><path d="M19.74,18.43l-7.48-7.31a6.62,6.62,0,0,0,1.63-4.35A6.86,6.86,0,0,0,7,0,7,7,0,0,0,1.19,3,6.58,6.58,0,0,0,0,6.77a6.86,6.86,0,0,0,7,6.77,7.06,7.06,0,0,0,3.88-1.15l7.56,7.38a0.84,0.84,0,0,0,1.17,0l0.19-.19A0.77,0.77,0,0,0,20,19,0.83,0.83,0,0,0,19.74,18.43Zm-9.15-7.83,0,0,0,0a4.54,4.54,0,0,1-.58.45A5.47,5.47,0,0,1,7,12,5.31,5.31,0,0,1,1.57,6.77a5.09,5.09,0,0,1,.91-2.92,5.58,5.58,0,0,1,1-1.09A5.49,5.49,0,0,1,7,1.53a5.31,5.31,0,0,1,5.37,5.23A5.1,5.1,0,0,1,11,10.16,3.6,3.6,0,0,1,10.59,10.61Z" fill="#0b446e"/></svg>